<?xml version="1.0" encoding="UTF-8" standalone="no"?>
<!DOCTYPE svg PUBLIC "-//W3C//DTD SVG 1.1//EN" "http://www.w3.org/Graphics/SVG/1.1/DTD/svg11.dtd">
<svg version="1.1" xmlns="http://www.w3.org/2000/svg" xmlns:xlink="http://www.w3.org/1999/xlink" preserveAspectRatio="xMidYMid meet" viewBox="0 0 356 88" width="356" height="88"><defs><path d="M5.92 5.61L16.17 5.61L16.17 29.46L46.62 29.46L46.62 5.61L56.87 5.61L56.87 64.06L46.62 64.06L46.62 38.46L16.17 38.46L16.17 64.06L5.92 64.06L5.92 5.61Z" id="a3mz6nD7X0"></path><path d="M110.22 64.06L105.92 52.76L79.12 52.76L74.82 64.06L63.17 64.06L86.12 5.61L98.92 5.61L121.87 64.06L110.22 64.06ZM103.07 43.76L92.57 15.91L82.02 43.76L103.07 43.76Z" id="ckX5a4Mdn"></path><path d="M129.42 5.61L147.12 52.86L164.82 5.61L176.47 5.61L153.52 64.06L140.72 64.06L117.77 5.61L129.42 5.61Z" id="bfnyk8Uvf"></path><path d="M182.72 5.61L222.77 5.61L222.77 14.66L193.02 14.66L193.02 29.71L222.17 29.71L222.17 38.76L193.02 38.76L193.02 55.01L222.77 55.01L222.77 64.06L182.72 64.06L182.72 5.61Z" id="a2VuCmLfTM"></path><path d="M232.57 5.61L242.82 5.61L242.82 55.01L268.57 55.01L268.57 64.06L232.57 64.06L232.57 5.61Z" id="b13EUzRvwp"></path><path d="M287.82 5.61C287.82 5.61 287.82 5.61 287.82 5.61C287.82 40.68 287.82 60.16 287.82 64.06C287.82 64.06 287.82 64.06 287.82 64.06C281.67 64.06 278.26 64.06 277.57 64.06C277.57 64.06 277.57 64.06 277.57 64.06C277.57 28.99 277.57 9.51 277.57 5.61C277.57 5.61 277.57 5.61 277.57 5.61C283.72 5.61 287.14 5.61 287.82 5.61Z" id="a36UNKkoof"></path><path d="M300.22 5.61L310.77 5.61L340.67 46.11L340.67 5.61L350.92 5.61L350.92 64.06L341.02 64.06L310.52 22.26L310.52 64.06L300.22 64.06L300.22 5.61Z" id="apdmdv9SE"></path><path d="M9.67 71.46L9.67 81.11L19.82 81.11L19.82 77.86L23.62 78.61C23.62 79.69 23.62 80.29 23.62 80.41C23.62 81.81 23.32 82.76 22.77 83.31C22.22 83.81 21.12 84.11 19.57 84.11C18.61 84.11 10.89 84.11 9.92 84.11C8.37 84.11 7.32 83.86 6.72 83.36C6.17 82.86 5.87 81.86 5.87 80.46C5.87 79.64 5.87 73.12 5.87 72.31C5.87 70.91 6.17 69.96 6.72 69.46C7.27 68.96 8.32 68.71 9.92 68.71C10.89 68.71 18.61 68.71 19.57 68.71C21.17 68.71 22.22 68.96 22.77 69.46C23.32 69.96 23.62 70.91 23.62 72.31C23.62 72.41 23.62 72.91 23.62 73.81L19.82 74.36L19.82 71.46L9.67 71.46Z" id="c7TxS3kd4N"></path><path d="M55.57 68.68L55.89 68.7L56.19 68.73L56.48 68.77L56.74 68.82L56.99 68.88L57.21 68.94L57.42 69.02L57.61 69.1L57.78 69.2L57.94 69.3L58.07 69.41L58.19 69.53L58.3 69.67L58.41 69.83L58.5 70L58.58 70.19L58.65 70.39L58.71 70.61L58.76 70.84L58.8 71.09L58.83 71.36L58.85 71.65L58.87 71.94L58.87 72.26L58.87 80.41L58.87 80.73L58.85 81.03L58.82 81.31L58.79 81.59L58.74 81.84L58.69 82.08L58.62 82.31L58.54 82.52L58.46 82.71L58.36 82.88L58.26 83.04L58.14 83.19L58.02 83.31L57.89 83.42L57.73 83.52L57.56 83.62L57.37 83.7L57.16 83.78L56.94 83.84L56.69 83.9L56.43 83.95L56.14 83.99L55.84 84.02L55.52 84.04L55.18 84.05L54.82 84.06L42.92 84.06L42.56 84.05L42.22 84.04L41.9 84.02L41.6 83.99L41.32 83.95L41.05 83.9L40.81 83.84L40.58 83.78L40.37 83.7L40.18 83.62L40.01 83.52L39.86 83.42L39.72 83.31L39.6 83.19L39.49 83.04L39.39 82.88L39.3 82.71L39.22 82.52L39.15 82.31L39.09 82.08L39.04 81.84L38.99 81.59L38.96 81.31L38.94 81.03L38.93 80.73L38.92 80.41L38.92 72.26L38.96 71.91L39.01 71.58L39.05 71.27L39.1 70.99L39.16 70.73L39.22 70.48L39.28 70.26L39.34 70.07L39.41 69.89L39.48 69.74L39.56 69.61L39.64 69.5L39.72 69.41L39.86 69.3L40.01 69.2L40.18 69.1L40.37 69.02L40.58 68.94L40.81 68.88L41.05 68.82L41.32 68.77L41.6 68.73L41.9 68.7L42.22 68.68L42.56 68.66L42.92 68.66L54.87 68.66L55.23 68.66L55.57 68.68ZM42.67 81.11L55.12 81.11L55.12 71.46L42.67 71.46L42.67 81.11Z" id="baWPXnG3N6"></path><path d="M74.87 68.66L77.47 68.66L90.57 78.91L90.57 68.66L93.97 68.66L93.97 84.11L91.37 84.11L78.32 73.66L78.32 84.11L74.87 84.11L74.87 68.66Z" id="a17xqhTDMt"></path><path d="M124.62 71.41L113.97 71.41L113.97 74.66C120 74.66 123.35 74.66 124.02 74.66C125.62 74.66 126.67 74.91 127.22 75.41C127.77 75.91 128.02 76.86 128.02 78.31C128.02 78.52 128.02 80.2 128.02 80.41C128.02 81.81 127.72 82.81 127.17 83.31C126.62 83.81 125.57 84.06 123.97 84.06C122.97 84.06 114.93 84.06 113.92 84.06C112.32 84.06 111.27 83.81 110.67 83.31C110.12 82.81 109.82 81.81 109.82 80.41C109.82 80.38 109.82 80.23 109.82 79.96L113.17 79.36L113.17 81.16L124.52 81.16L124.52 77.61C118.52 77.61 115.19 77.61 114.52 77.61C112.92 77.61 111.87 77.36 111.32 76.81C110.77 76.31 110.47 75.31 110.47 73.91C110.47 73.73 110.47 72.33 110.47 72.16C110.47 70.76 110.77 69.81 111.32 69.31C111.87 68.81 112.97 68.51 114.52 68.51C115.44 68.51 122.76 68.51 123.67 68.51C125.22 68.51 126.32 68.76 126.87 69.26C127.47 69.76 127.72 70.61 127.72 71.86C127.72 71.88 127.72 72 127.72 72.21L124.47 72.91L124.47 71.41L124.62 71.41Z" id="dQhGIOLip"></path><path d="M147.82 81.21L158.57 81.21L158.57 68.66L162.37 68.66C162.37 75.74 162.37 79.67 162.37 80.46C162.37 81.86 162.07 82.81 161.52 83.36C160.97 83.86 159.87 84.16 158.32 84.16C157.3 84.16 149.14 84.16 148.12 84.16C146.57 84.16 145.47 83.91 144.92 83.41C144.37 82.91 144.07 81.91 144.07 80.51C144.07 79.72 144.07 75.79 144.07 68.71L147.82 68.71L147.82 81.21Z" id="a1wedICyKJ"></path><path d="M178.72 68.66L182.52 68.66L182.52 81.21L194.62 81.21L194.62 84.11L178.72 84.11L178.72 68.66Z" id="fjmRN4UF"></path><path d="M213.52 84.11L209.77 84.11L209.77 71.41L202.27 71.41L202.27 68.66L220.97 68.66L220.97 71.41L213.52 71.41L213.52 84.11Z" id="aBTasx2Dz"></path><path d="M248.12 84.11L246.17 80.71L235.97 80.71L234.02 84.11L230.32 84.11L239.47 68.66L243.07 68.66L252.37 84.11L248.12 84.11ZM244.72 77.86L241.12 71.41L237.62 77.86L244.72 77.86Z" id="b1Z1gVQZZP"></path><path d="M265.72 68.66L268.32 68.66L281.42 78.91L281.42 68.66L284.87 68.66L284.87 84.11L282.22 84.11L269.17 73.66L269.17 84.11L265.72 84.11L265.72 68.66Z" id="h2AdseZ1Su"></path><path d="M304.62 71.46L304.62 81.11L314.77 81.11L314.77 77.86L318.57 78.61C318.57 79.69 318.57 80.29 318.57 80.41C318.57 81.81 318.27 82.76 317.72 83.31C317.17 83.81 316.07 84.11 314.52 84.11C313.56 84.11 305.84 84.11 304.87 84.11C303.32 84.11 302.27 83.86 301.67 83.36C301.12 82.86 300.82 81.86 300.82 80.46C300.82 79.64 300.82 73.12 300.82 72.31C300.82 70.91 301.12 69.96 301.67 69.46C302.22 68.96 303.27 68.71 304.87 68.71C305.84 68.71 313.56 68.71 314.52 68.71C316.12 68.71 317.17 68.96 317.72 69.46C318.27 69.96 318.57 70.91 318.57 72.31C318.57 72.41 318.57 72.91 318.57 73.81L314.77 74.36L314.77 71.46L304.62 71.46Z" id="aG3FEO68K"></path><path d="M338.77 77.16L330.32 68.66L335.42 68.66L340.92 74.41L346.47 68.66L350.92 68.66L342.52 77.06L342.52 84.11L338.77 84.11L338.77 77.16Z" id="a5msFag0TI"></path></defs><g><g><g><use xlink:href="#a3mz6nD7X0" opacity="1" fill="#191919" fill-opacity="1"></use><g><use xlink:href="#a3mz6nD7X0" opacity="1" fill-opacity="0" stroke="#000000" stroke-width="1" stroke-opacity="0"></use></g></g><g><use xlink:href="#ckX5a4Mdn" opacity="1" fill="#191919" fill-opacity="1"></use><g><use xlink:href="#ckX5a4Mdn" opacity="1" fill-opacity="0" stroke="#000000" stroke-width="1" stroke-opacity="0"></use></g></g><g><use xlink:href="#bfnyk8Uvf" opacity="1" fill="#191919" fill-opacity="1"></use><g><use xlink:href="#bfnyk8Uvf" opacity="1" fill-opacity="0" stroke="#000000" stroke-width="1" stroke-opacity="0"></use></g></g><g><use xlink:href="#a2VuCmLfTM" opacity="1" fill="#191919" fill-opacity="1"></use><g><use xlink:href="#a2VuCmLfTM" opacity="1" fill-opacity="0" stroke="#000000" stroke-width="1" stroke-opacity="0"></use></g></g><g><use xlink:href="#b13EUzRvwp" opacity="1" fill="#191919" fill-opacity="1"></use><g><use xlink:href="#b13EUzRvwp" opacity="1" fill-opacity="0" stroke="#000000" stroke-width="1" stroke-opacity="0"></use></g></g><g><use xlink:href="#a36UNKkoof" opacity="1" fill="#191919" fill-opacity="1"></use><g><use xlink:href="#a36UNKkoof" opacity="1" fill-opacity="0" stroke="#000000" stroke-width="1" stroke-opacity="0"></use></g></g><g><use xlink:href="#apdmdv9SE" opacity="1" fill="#191919" fill-opacity="1"></use><g><use xlink:href="#apdmdv9SE" opacity="1" fill-opacity="0" stroke="#000000" stroke-width="1" stroke-opacity="0"></use></g></g><g><use xlink:href="#c7TxS3kd4N" opacity="1" fill="#014421" fill-opacity="1"></use><g><use xlink:href="#c7TxS3kd4N" opacity="1" fill-opacity="0" stroke="#000000" stroke-width="1" stroke-opacity="0"></use></g></g><g><use xlink:href="#baWPXnG3N6" opacity="1" fill="#014421" fill-opacity="1"></use><g><use xlink:href="#baWPXnG3N6" opacity="1" fill-opacity="0" stroke="#000000" stroke-width="1" stroke-opacity="0"></use></g></g><g><use xlink:href="#a17xqhTDMt" opacity="1" fill="#014421" fill-opacity="1"></use><g><use xlink:href="#a17xqhTDMt" opacity="1" fill-opacity="0" stroke="#000000" stroke-width="1" stroke-opacity="0"></use></g></g><g><use xlink:href="#dQhGIOLip" opacity="1" fill="#014421" fill-opacity="1"></use><g><use xlink:href="#dQhGIOLip" opacity="1" fill-opacity="0" stroke="#000000" stroke-width="1" stroke-opacity="0"></use></g></g><g><use xlink:href="#a1wedICyKJ" opacity="1" fill="#014421" fill-opacity="1"></use><g><use xlink:href="#a1wedICyKJ" opacity="1" fill-opacity="0" stroke="#000000" stroke-width="1" stroke-opacity="0"></use></g></g><g><use xlink:href="#fjmRN4UF" opacity="1" fill="#014421" fill-opacity="1"></use><g><use xlink:href="#fjmRN4UF" opacity="1" fill-opacity="0" stroke="#000000" stroke-width="1" stroke-opacity="0"></use></g></g><g><use xlink:href="#aBTasx2Dz" opacity="1" fill="#014421" fill-opacity="1"></use><g><use xlink:href="#aBTasx2Dz" opacity="1" fill-opacity="0" stroke="#000000" stroke-width="1" stroke-opacity="0"></use></g></g><g><use xlink:href="#b1Z1gVQZZP" opacity="1" fill="#014421" fill-opacity="1"></use><g><use xlink:href="#b1Z1gVQZZP" opacity="1" fill-opacity="0" stroke="#000000" stroke-width="1" stroke-opacity="0"></use></g></g><g><use xlink:href="#h2AdseZ1Su" opacity="1" fill="#014421" fill-opacity="1"></use><g><use xlink:href="#h2AdseZ1Su" opacity="1" fill-opacity="0" stroke="#000000" stroke-width="1" stroke-opacity="0"></use></g></g><g><use xlink:href="#aG3FEO68K" opacity="1" fill="#014421" fill-opacity="1"></use><g><use xlink:href="#aG3FEO68K" opacity="1" fill-opacity="0" stroke="#000000" stroke-width="1" stroke-opacity="0"></use></g></g><g><use xlink:href="#a5msFag0TI" opacity="1" fill="#014421" fill-opacity="1"></use><g><use xlink:href="#a5msFag0TI" opacity="1" fill-opacity="0" stroke="#000000" stroke-width="1" stroke-opacity="0"></use></g></g></g></g></svg>